<?xml version="1.0" encoding="UTF-8"?>
<svg xmlns="http://www.w3.org/2000/svg" xmlns:xlink="http://www.w3.org/1999/xlink" width="512pt" height="512pt" viewBox="0 0 512 512" version="1.1">
<g id="surface803">
<path style=" stroke:none;fill-rule:nonzero;fill:rgb(100%,100%,100%);fill-opacity:1;" d="M 183.5 80 C 126.6875 80 80 126.625 80 183.5 L 80 328.5 C 80 385.3125 126.625 432 183.5 432 L 328.5 432 C 385.3125 432 432 385.375 432 328.5 L 432 183.5 C 432 126.6875 385.375 80 328.5 80 Z M 183.5 112 L 328.5 112 C 368.0625 112 400 143.9375 400 183.5 L 400 328.5 C 400 368.0625 368.0625 400 328.5 400 L 183.5 400 C 143.9375 400 112 368.0625 112 328.5 L 112 183.5 C 112 143.9375 143.9375 112 183.5 112 Z M 350.5 147 C 342.4375 147 336 153.4375 336 161.5 C 336 169.5625 342.4375 176 350.5 176 C 358.5625 176 365 169.5625 365 161.5 C 365 153.4375 358.5625 147 350.5 147 Z M 256 160 C 203.1875 160 160 203.1875 160 256 C 160 308.8125 203.1875 352 256 352 C 308.8125 352 352 308.8125 352 256 C 352 203.1875 308.8125 160 256 160 Z M 256 192 C 291.5625 192 320 220.4375 320 256 C 320 291.5625 291.5625 320 256 320 C 220.4375 320 192 291.5625 192 256 C 192 220.4375 220.4375 192 256 192 Z M 256 192 "/>
</g>
</svg>
