<svg width="351" height="372" viewBox="0 0 351 372" fill="none" xmlns="http://www.w3.org/2000/svg">
<g filter="url(#filter0_d)">
<mask id="mask0" mask-type="alpha" maskUnits="userSpaceOnUse" x="15" y="0" width="321" height="342">
<path d="M321.452 9.39742C319.482 6.42585 314.831 7.90678 314.447 11.4516C311.16 41.8647 293.879 49.7354 274.463 61.6417C272.845 62.634 272.26 64.6991 273.099 66.4025L294.441 109.747C295.484 111.866 298.254 112.454 300.069 110.944C350.505 68.9855 337.248 33.2322 321.452 9.39742Z" fill="white"/>
<path d="M30.0003 9.38493C31.9803 6.4205 36.6389 7.90678 37.022 11.4516C40.3076 41.8486 57.5722 49.7271 76.9759 61.6228C78.6071 62.6228 79.186 64.7109 78.3222 66.4188L56.375 109.813C55.3164 111.906 52.5661 112.474 50.7632 110.975C0.297537 68.9958 14.0762 33.2255 30.0003 9.38493Z" fill="white"/>
<path d="M133.681 124.224C133.681 118.456 139.969 114.894 144.913 117.861L246.933 179.107C251.734 181.989 251.734 188.95 246.933 191.832L144.913 253.078C139.969 256.046 133.681 252.483 133.681 246.715V124.224Z" fill="white"/>
<path fill-rule="evenodd" clip-rule="evenodd" d="M175.583 29.2726C89.3639 29.2726 19.4698 99.2044 19.4698 185.47C19.4698 271.735 89.3639 341.667 175.583 341.667C261.801 341.667 331.695 271.735 331.695 185.47C331.695 99.2044 261.801 29.2726 175.583 29.2726ZM175.953 313.47C246.403 313.47 303.513 256.328 303.513 185.841C303.513 115.353 246.403 58.2117 175.953 58.2117C105.504 58.2117 48.3933 115.353 48.3933 185.841C48.3933 256.328 105.504 313.47 175.953 313.47Z" fill="white"/>
</mask>
<g mask="url(#mask0)">
<rect x="-24" y="-28" width="393" height="398" fill="url(#paint0_linear)"/>
</g>
</g>
<mask id="mask1" mask-type="alpha" maskUnits="userSpaceOnUse" x="15" y="0" width="321" height="342">
<mask id="mask2" maskUnits="userSpaceOnUse" x="15" y="0" width="321" height="342">
<path d="M321.452 9.39742C319.482 6.42585 314.831 7.90678 314.447 11.4516C311.16 41.8647 293.879 49.7354 274.463 61.6417C272.845 62.634 272.26 64.6991 273.099 66.4025L294.441 109.747C295.484 111.866 298.254 112.454 300.069 110.944C350.505 68.9855 337.248 33.2322 321.452 9.39742Z" fill="white"/>
<path d="M30.0003 9.38493C31.9803 6.4205 36.6389 7.90678 37.022 11.4516C40.3076 41.8486 57.5722 49.7271 76.9759 61.6228C78.6071 62.6228 79.186 64.7109 78.3222 66.4188L56.375 109.813C55.3164 111.906 52.5661 112.474 50.7632 110.975C0.297537 68.9958 14.0762 33.2255 30.0003 9.38493Z" fill="white"/>
<path d="M133.681 124.224C133.681 118.456 139.969 114.894 144.913 117.861L246.933 179.107C251.734 181.989 251.734 188.95 246.933 191.832L144.913 253.078C139.969 256.046 133.681 252.483 133.681 246.715V124.224Z" fill="white"/>
<path fill-rule="evenodd" clip-rule="evenodd" d="M175.583 29.2726C89.3639 29.2726 19.4698 99.2044 19.4698 185.47C19.4698 271.735 89.3639 341.667 175.583 341.667C261.801 341.667 331.695 271.735 331.695 185.47C331.695 99.2044 261.801 29.2726 175.583 29.2726ZM175.953 313.47C246.403 313.47 303.513 256.328 303.513 185.841C303.513 115.353 246.403 58.2117 175.953 58.2117C105.504 58.2117 48.3933 115.353 48.3933 185.841C48.3933 256.328 105.504 313.47 175.953 313.47Z" fill="white"/>
</mask>
<g mask="url(#mask2)">
<rect x="-24" y="-28" width="393" height="398" fill="url(#paint1_linear)"/>
</g>
</mask>
<g mask="url(#mask1)">
<path fill-rule="evenodd" clip-rule="evenodd" d="M436.318 -29.7414C179.094 61.0688 75.5932 310.439 47.5898 479.44C5.34942 454.588 -23 408.656 -23 356.102V99.9999C-23 21.0232 41.0233 -43 120 -43H376.102C397.614 -43 418.017 -38.2499 436.318 -29.7414Z" fill="white" fill-opacity="0.15"/>
</g>
<defs>
<filter id="filter0_d" x="0.415527" y="0.333374" width="350.277" height="371.333" filterUnits="userSpaceOnUse" color-interpolation-filters="sRGB">
<feFlood flood-opacity="0" result="BackgroundImageFix"/>
<feColorMatrix in="SourceAlpha" type="matrix" values="0 0 0 0 0 0 0 0 0 0 0 0 0 0 0 0 0 0 127 0"/>
<feOffset dy="15"/>
<feGaussianBlur stdDeviation="7.5"/>
<feColorMatrix type="matrix" values="0 0 0 0 0.0104167 0 0 0 0 0.0541667 0 0 0 0 0.166667 0 0 0 0.25 0"/>
<feBlend mode="normal" in2="BackgroundImageFix" result="effect1_dropShadow"/>
<feBlend mode="normal" in="SourceGraphic" in2="effect1_dropShadow" result="shape"/>
</filter>
<linearGradient id="paint0_linear" x1="15.5" y1="2.50001" x2="301" y2="330.5" gradientUnits="userSpaceOnUse">
<stop stop-color="#8D17EF"/>
<stop offset="0.505208" stop-color="#F913C6"/>
<stop offset="1" stop-color="#FD0532"/>
</linearGradient>
<linearGradient id="paint1_linear" x1="15.5" y1="2.50001" x2="301" y2="330.5" gradientUnits="userSpaceOnUse">
<stop stop-color="#8D17EF"/>
<stop offset="0.505208" stop-color="#F913C6"/>
<stop offset="1" stop-color="#FD0532"/>
</linearGradient>
</defs>
</svg>
