<svg width="432" height="460" viewBox="0 0 432 460" fill="none" xmlns="http://www.w3.org/2000/svg">
<path d="M412.655 12.2152C409.999 8.21049 403.727 10.2063 403.21 14.9835C398.778 55.9699 375.476 66.5769 349.295 82.6225C347.113 83.9597 346.325 86.7428 347.456 89.0384L376.233 147.452C377.64 150.307 381.375 151.1 383.823 149.064C451.829 92.5194 433.953 44.3362 412.655 12.2152Z" fill="white"/>
<path d="M19.6658 12.1983C22.3357 8.20328 28.6173 10.2063 29.1339 14.9835C33.5641 55.9481 56.8434 66.5656 83.0071 82.597C85.2066 83.9447 85.9871 86.7587 84.8224 89.0603L55.2291 147.541C53.8017 150.362 50.0932 151.127 47.6622 149.106C-20.3849 92.5333 -1.80593 44.3273 19.6658 12.1983Z" fill="white"/>
<path d="M159.467 166.962C159.467 159.189 167.947 154.388 174.612 158.387L312.175 240.925C318.649 244.809 318.649 254.191 312.175 258.075L174.612 340.613C167.947 344.612 159.467 339.811 159.467 332.038V166.962Z" fill="white"/>
<path fill-rule="evenodd" clip-rule="evenodd" d="M215.967 39C99.7109 39 5.46686 133.244 5.46686 249.5C5.46686 365.756 99.7109 460 215.967 460C332.223 460 426.467 365.756 426.467 249.5C426.467 133.244 332.223 39 215.967 39ZM216.467 422C311.46 422 388.467 344.993 388.467 250C388.467 155.007 311.46 78 216.467 78C121.474 78 44.4669 155.007 44.4669 250C44.4669 344.993 121.474 422 216.467 422Z" fill="white"/>
</svg>
